<?xml version="1.0" encoding="iso-8859-1"?>
<!-- Generator: Adobe Illustrator 18.1.1, SVG Export Plug-In . SVG Version: 6.00 Build 0)  -->
<svg version="1.1" id="Capa_1" xmlns="http://www.w3.org/2000/svg" xmlns:xlink="http://www.w3.org/1999/xlink" x="0px" y="0px"
	 viewBox="0 0 31.842 31.842" style="enable-background:new 0 0 31.842 31.842;" xml:space="preserve">
<path d="M4.737,31.842c-1.656,0-3.003-1.348-3.003-3.003V3.003C1.734,1.347,3.081,0,4.737,0c0.521,0,1.038,0.14,1.497,0.404
	l22.375,12.918c0.939,0.542,1.5,1.514,1.5,2.598c0,1.085-0.561,2.057-1.5,2.599L6.234,31.437
	C5.775,31.701,5.258,31.842,4.737,31.842z M4.737,2C4.255,2,3.734,2.383,3.734,3.003v25.836c0,0.841,0.904,1.215,1.5,0.865
	l22.375-12.918c0.451-0.261,0.5-0.692,0.5-0.866c0-0.173-0.049-0.604-0.5-0.865L5.234,2.137C5.076,2.046,4.909,2,4.737,2z"/>
<g>
</g>
<g>
</g>
<g>
</g>
<g>
</g>
<g>
</g>
<g>
</g>
<g>
</g>
<g>
</g>
<g>
</g>
<g>
</g>
<g>
</g>
<g>
</g>
<g>
</g>
<g>
</g>
<g>
</g>
</svg>
